<svg width="20" height="20" viewBox="0 0 20 20" fill="none" xmlns="http://www.w3.org/2000/svg">
<path fill-rule="evenodd" clip-rule="evenodd" d="M2.5 4.99997C2.5 3.61926 3.61929 2.49997 5 2.49997H9.16667C9.6269 2.49997 10 2.87307 10 3.33331C10 3.79354 9.6269 4.16664 9.16667 4.16664H5C4.53976 4.16664 4.16667 4.53973 4.16667 4.99997V15C4.16667 15.4602 4.53976 15.8333 5 15.8333H15C15.4602 15.8333 15.8333 15.4602 15.8333 15V9.99997C15.8333 9.53973 16.2064 9.16664 16.6667 9.16664C17.1269 9.16664 17.5 9.53973 17.5 9.99997V15C17.5 16.3807 16.3807 17.5 15 17.5H5C3.61929 17.5 2.5 16.3807 2.5 15V4.99997Z" fill="#39455F"/>
<path d="M14.4286 2.84515C15.0795 2.19428 16.1347 2.19428 16.7856 2.84515C17.4365 3.49602 17.4365 4.5513 16.7856 5.20217L10.8931 11.0947C10.5676 11.4202 10.04 11.4202 9.71454 11.0947L8.53603 9.91622C8.21059 9.59078 8.21059 9.06314 8.53603 8.73771L14.4286 2.84515Z" fill="#39455F"/>
<path d="M7.13093 10.8094C6.94496 10.6234 6.6271 10.6199 6.55269 10.8722L6.00829 12.7176C5.83691 13.2985 6.33153 13.7931 6.91245 13.6217L8.75782 13.0773C9.01007 13.0029 9.00657 12.6851 8.8206 12.4991L7.13093 10.8094Z" fill="#39455F"/>
</svg>
