<svg width="15" height="15" viewBox="0 0 15 15" fill="none" xmlns="http://www.w3.org/2000/svg">
<path fill-rule="evenodd" clip-rule="evenodd" d="M13.75 7.5C13.75 10.9518 10.9518 13.75 7.5 13.75C4.04822 13.75 1.25 10.9518 1.25 7.5C1.25 4.04822 4.04822 1.25 7.5 1.25C10.9518 1.25 13.75 4.04822 13.75 7.5ZM8.125 5C8.125 5.34518 7.84518 5.625 7.5 5.625C7.15482 5.625 6.875 5.34518 6.875 5C6.875 4.65482 7.15482 4.375 7.5 4.375C7.84518 4.375 8.125 4.65482 8.125 5ZM6.875 7.5C6.875 7.15482 7.15482 6.875 7.5 6.875C7.84518 6.875 8.125 7.15482 8.125 7.5V10.625C8.125 10.9702 7.84518 11.25 7.5 11.25C7.15482 11.25 6.875 10.9702 6.875 10.625V7.5Z" fill="#39455F"/>
</svg>
