<svg width="18" height="20" viewBox="0 0 18 20" fill="none" xmlns="http://www.w3.org/2000/svg">
<path fill-rule="evenodd" clip-rule="evenodd" d="M1.47663 13.2102C2.79094 11.378 5.11863 10 8.99995 10C12.8813 10 15.209 11.378 16.5233 13.2102C17.7935 14.9809 17.9958 17.0105 17.9999 18.1336C18.004 19.2629 17.0572 20 16.0865 20H1.9134C0.942723 20 -0.00404903 19.2629 1.30242e-05 18.1336C0.00405267 17.0105 0.206371 14.9809 1.47663 13.2102Z" fill="#121E32"/>
<path fill-rule="evenodd" clip-rule="evenodd" d="M9.00005 8C11.2092 8 13 6.20914 13 4C13 1.79086 11.2092 0 9.00005 0C6.79091 0 5.00005 1.79086 5.00005 4C5.00005 6.20914 6.79091 8 9.00005 8Z" fill="#121E32"/>
</svg>
