<svg width="28" height="28" viewBox="0 0 28 28" fill="none" xmlns="http://www.w3.org/2000/svg">
<path fill-rule="evenodd" clip-rule="evenodd" d="M11.0554 10.7875C10.9243 10.9068 10.804 11.0533 10.7262 11.1808C10.6064 11.3719 10.5356 11.5778 10.4904 11.7925C10.1339 13.4366 10.5866 14.9075 12.0811 16.2564C13.0617 17.1414 13.8052 17.5051 14.8233 17.6379C15.3938 17.7123 15.9738 17.7187 16.5483 17.7484C16.8029 17.7616 17.0751 17.7123 17.3185 17.6475C17.5921 17.5597 17.8418 17.4172 18.051 17.2268C18.8164 16.5303 18.8164 15.401 18.051 14.7044L17.9828 14.6453C17.2429 14.0328 16.1115 14.0272 15.3648 14.6315L14.8031 15.1349C14.6994 15.2293 14.5361 15.2421 14.4163 15.1652C14.1668 15.0053 13.5042 14.4158 13.3425 14.2148C13.2546 14.1056 13.2673 13.9543 13.3726 13.8586C13.5507 13.7 13.7307 13.543 13.907 13.3826C14.6944 12.666 14.6944 11.5041 13.907 10.7875C13.1195 10.0708 11.8429 10.0708 11.0554 10.7875Z" fill="#121E32"/>
<path d="M0 14C0 6.26801 6.26801 0 14 0V0C21.732 0 28 6.26801 28 14V14C28 21.732 21.732 28 14 28V28C6.26801 28 0 21.732 0 14V14Z" fill="#6210D6" fill-opacity="0.05"/>
</svg>
