<svg width="28" height="28" viewBox="0 0 28 28" fill="none" xmlns="http://www.w3.org/2000/svg">
<rect width="28" height="28" rx="14" fill="#6210D6" fill-opacity="0.05"/>
<path d="M8.60145 11.3563C8.48395 11.8347 8.39814 12.4526 8.27875 13.3122C8.00614 15.2749 7.86984 16.2563 8.16955 17.0185C8.43266 17.6877 8.91846 18.2456 9.54505 18.5983C10.2588 19 11.2496 19 13.2312 19H14.2463C16.2279 19 17.2188 19 17.9325 18.5983C18.5591 18.2456 19.0449 17.6877 19.308 17.0185C19.6077 16.2563 19.4714 15.2749 19.1988 13.3122C19.0691 12.3786 18.9791 11.7302 18.845 11.2358L18.3885 11.6923C17.3683 12.7125 16.5689 13.512 15.8612 14.0519C15.1369 14.6046 14.4539 14.9292 13.663 14.9292C12.8721 14.9292 12.1891 14.6046 11.4648 14.0519C10.7571 13.512 9.95766 12.7125 8.93749 11.6923L8.60145 11.3563Z" fill="#39455F"/>
<path d="M8.98419 10.4132L9.57504 11.004C10.6261 12.0551 11.3817 12.8093 12.0335 13.3066C12.6744 13.7956 13.1595 13.9917 13.663 13.9917C14.1665 13.9917 14.6516 13.7956 15.2925 13.3066C15.9443 12.8093 16.6999 12.0551 17.751 11.004L18.432 10.323C18.1145 9.87315 17.6832 9.51443 17.1812 9.28427C16.5611 9 15.7895 9 14.2463 9H13.2312C11.6881 9 10.9165 9 10.2964 9.28427C9.76118 9.52962 9.30642 9.92105 8.98419 10.4132Z" fill="#39455F"/>
</svg>
