<svg width="28" height="28" viewBox="0 0 28 28" fill="none" xmlns="http://www.w3.org/2000/svg">
<rect width="28" height="28" rx="14" fill="#6210D6" fill-opacity="0.05"/>
<path fill-rule="evenodd" clip-rule="evenodd" d="M10.8404 11.256C10.8404 9.45777 12.2981 8 14.0964 8C15.8946 8 17.3524 9.45777 17.3524 11.256V11.8867C17.3524 11.9245 17.3475 11.9612 17.3382 11.9961C18.1514 12.2949 18.7853 12.951 19.0542 13.7787C19.1928 14.2052 19.1928 14.7322 19.1928 15.7861C19.1928 16.8401 19.1928 17.3671 19.0542 17.7936C18.7741 18.6556 18.0983 19.3314 17.2364 19.6114C16.8099 19.75 16.2829 19.75 15.2289 19.75H12.9638C11.9099 19.75 11.3829 19.75 10.9564 19.6114C10.0944 19.3314 9.41864 18.6556 9.13857 17.7936C9 17.3671 9 16.8401 9 15.7861C9 14.7322 9 14.2052 9.13857 13.7787C9.40752 12.951 10.0414 12.2949 10.8546 11.9961C10.8453 11.9612 10.8404 11.9245 10.8404 11.8867V11.256ZM11.6898 11.8416C12.0124 11.8223 12.4172 11.8223 12.9639 11.8223H15.2289C15.7755 11.8223 16.1804 11.8223 16.503 11.8416V11.256C16.503 9.92688 15.4255 8.8494 14.0964 8.8494C12.7672 8.8494 11.6898 9.92688 11.6898 11.256V11.8416ZM14.0964 14.2289C14.3309 14.2289 14.5211 14.4191 14.5211 14.6536V16.9187C14.5211 17.1532 14.3309 17.3434 14.0964 17.3434C13.8618 17.3434 13.6717 17.1532 13.6717 16.9187V14.6536C13.6717 14.4191 13.8618 14.2289 14.0964 14.2289Z" fill="#39455F"/>
</svg>
