<svg width="15" height="15" viewBox="0 0 15 15" fill="none" xmlns="http://www.w3.org/2000/svg">
<path d="M8.875 2.5V3H9.375H12.5C12.569 3 12.625 3.05596 12.625 3.125C12.625 3.19404 12.569 3.25 12.5 3.25H2.5C2.43096 3.25 2.375 3.19404 2.375 3.125C2.375 3.05596 2.43096 3 2.5 3H5.625H6.125V2.5V1.875C6.125 1.80596 6.18096 1.75 6.25 1.75H8.75C8.81904 1.75 8.875 1.80596 8.875 1.875V2.5ZM3.75 5.5H11.25C11.319 5.5 11.375 5.55596 11.375 5.625V11.875C11.375 12.6344 10.7594 13.25 10 13.25H5C4.24061 13.25 3.625 12.6344 3.625 11.875V5.625C3.625 5.55596 3.68096 5.5 3.75 5.5ZM6.25 5.75C5.62868 5.75 5.125 6.25368 5.125 6.875V10.625C5.125 11.2463 5.62868 11.75 6.25 11.75C6.87132 11.75 7.375 11.2463 7.375 10.625V6.875C7.375 6.25368 6.87132 5.75 6.25 5.75ZM8.75 5.75C8.12868 5.75 7.625 6.25368 7.625 6.875V10.625C7.625 11.2463 8.12868 11.75 8.75 11.75C9.37132 11.75 9.875 11.2463 9.875 10.625V6.875C9.875 6.25368 9.37132 5.75 8.75 5.75Z" fill="#F81414" stroke="#F81414"/>
</svg>
